<svg width="43" height="49" viewBox="0 0 43 49" fill="none" xmlns="http://www.w3.org/2000/svg">
  <g>
    <path d="M9.20515 23.9607L42.0614 23.9607L42.0614 48.7649L9.20515 48.7649L9.20515 23.9607Z" fill="url(#paint0_linear_1_829)"/>
    <path d="M11.0333 30.3071L42.0614 30.3071L42.0614 48.7636L11.0333 48.7636L11.0333 30.3071Z" fill="url(#paint1_linear_1_830)"/>
    <path d="M0 5.65042L22.8602 5.65042L22.8602 42.967L0 42.967L0 5.65042Z" fill="url(#paint2_linear_1_831)"/>
    <path d="M9.99599 0.354527L42.0601 0.354527L42.0601 30.3097L9.99599 30.3097L9.99599 0.354527Z" fill="url(#paint3_linear_1_832)"/>
    <path d="M15.5134 0.354527L42.0601 0.354527L42.0601 26.6745L15.5134 26.6745L15.5134 0.354527Z" fill="url(#paint4_linear_1_833)"/>
    <path d="M0 6.71673L14.6936 6.71673L14.6936 39.8365L0 39.8365L0 6.71673Z" fill="url(#paint5_linear_1_834)"/>
  </g>
  <defs>
    <linearGradient id="paint0_linear_1_829" x1="25.6333" y1="23.9607" x2="25.6333" y2="48.7649" gradientUnits="userSpaceOnUse">
      <stop stop-color="#FCB01A"/>
      <stop offset="0.22" stop-color="#FCB319"/>
      <stop offset="0.58" stop-color="#FCD00F"/>
      <stop offset="1" stop-color="#FFEF00"/>
    </linearGradient>
    <linearGradient id="paint1_linear_1_830" x1="26.5474" y1="30.3071" x2="26.5474" y2="48.7636" gradientUnits="userSpaceOnUse">
      <stop stop-color="#FCB01A"/>
      <stop offset="0.22" stop-color="#FCB319"/>
      <stop offset="0.58" stop-color="#FCD00F"/>
      <stop offset="1" stop-color="#FFEF00"/>
    </linearGradient>
    <linearGradient id="paint2_linear_1_831" x1="11.4301" y1="5.65042" x2="11.4301" y2="42.967" gradientUnits="userSpaceOnUse">
      <stop stop-color="#021B8C"/>
      <stop offset="0.15" stop-color="#0539A2"/>
      <stop offset="0.43" stop-color="#0C6BCA"/>
      <stop offset="0.68" stop-color="#1190E0"/>
      <stop offset="0.87" stop-color="#13A6F1"/>
      <stop offset="1" stop-color="#15AFFA"/>
    </linearGradient>
    <linearGradient id="paint3_linear_1_832" x1="26.028" y1="0.354527" x2="26.028" y2="30.3097" gradientUnits="userSpaceOnUse">
      <stop stop-color="#212D63"/>
      <stop offset="0.29" stop-color="#232D6B"/>
      <stop offset="0.77" stop-color="#2A2F84"/>
      <stop offset="1" stop-color="#2E3192"/>
    </linearGradient>
    <linearGradient id="paint4_linear_1_833" x1="28.7867" y1="0.354527" x2="28.7867" y2="26.6745" gradientUnits="userSpaceOnUse">
      <stop stop-color="#212D63"/>
      <stop offset="0.29" stop-color="#232D6B"/>
      <stop offset="0.77" stop-color="#2A2F84"/>
      <stop offset="1" stop-color="#2E3192"/>
    </linearGradient>
    <linearGradient id="paint5_linear_1_834" x1="7.34678" y1="6.71673" x2="7.34678" y2="39.8365" gradientUnits="userSpaceOnUse">
      <stop stop-color="#021B8C"/>
      <stop offset="0.15" stop-color="#0539A2"/>
      <stop offset="0.43" stop-color="#0C6BCA"/>
      <stop offset="0.68" stop-color="#1190E0"/>
      <stop offset="0.87" stop-color="#13A6F1"/>
      <stop offset="1" stop-color="#15AFFA"/>
    </linearGradient>
  </defs>
</svg>
