<svg width="182" height="50" viewBox="0 0 182 50" fill="none" xmlns="http://www.w3.org/2000/svg">
  <!-- Main Logo Icon -->
  <g transform="translate(0.5, 0.35)">
    <!-- Background shapes with gradients -->
    <path d="M9.20515 23.9607L42.0614 23.9607L42.0614 48.7649L9.20515 48.7649L9.20515 23.9607Z" fill="url(#paint0_linear_1_829)"/>
    <path d="M11.0333 30.3071L42.0614 30.3071L42.0614 48.7636L11.0333 48.7636L11.0333 30.3071Z" fill="url(#paint1_linear_1_830)"/>
    <path d="M0 5.65042L22.8602 5.65042L22.8602 42.967L0 42.967L0 5.65042Z" fill="url(#paint2_linear_1_831)"/>
    <path d="M9.99599 0.354527L42.0601 0.354527L42.0601 30.3097L9.99599 30.3097L9.99599 0.354527Z" fill="url(#paint3_linear_1_832)"/>
    <path d="M15.5134 0.354527L42.0601 0.354527L42.0601 26.6745L15.5134 26.6745L15.5134 0.354527Z" fill="url(#paint4_linear_1_833)"/>
    <path d="M0 6.71673L14.6936 6.71673L14.6936 39.8365L0 39.8365L0 6.71673Z" fill="url(#paint5_linear_1_834)"/>
    
    <!-- Decorative dots -->
    <g transform="translate(17.36, 21.04)">
      <circle cx="1.47" cy="1.47" r="1.47" fill="#FCB01A"/>
      <circle cx="6.20" cy="1.47" r="1.47" fill="#FCB01A"/>
      <circle cx="1.47" cy="6.20" r="1.47" fill="#FCB01A"/>
      <circle cx="6.20" cy="6.20" r="1.47" fill="#FCB01A"/>
    </g>
  </g>
  
  <!-- Text "shadepro" -->
  <g transform="translate(50.57, 0)">
    <!-- Letter "s" -->
    <path d="M51.14 43.18L54.68 43.18L54.68 48.76L51.14 48.76L51.14 43.18Z" fill="#FCB01A"/>
    <path d="M54.98 42.02L58.92 42.02L58.92 48.68L54.98 48.68L54.98 42.02Z" fill="#FCB01A"/>
    
    <!-- Letter "h" -->
    <path d="M59.26 43.26L63.10 43.26L63.10 48.68L59.26 48.68L59.26 43.26Z" fill="#FCB01A"/>
    <path d="M65.26 43.27L68.32 43.27L68.32 48.68L65.26 48.68L65.26 43.27Z" fill="#FCB01A"/>
    <path d="M68.70 43.26L72.14 43.26L72.14 48.68L68.70 48.68L68.70 43.26Z" fill="#FCB01A"/>
    <path d="M72.74 42.66L76.98 42.66L76.98 48.77L72.74 48.77L72.74 42.66Z" fill="#FCB01A"/>
    <path d="M76.77 42.66L80.50 42.66L80.50 48.77L76.77 48.77L76.77 42.66Z" fill="#FCB01A"/>
    <path d="M80.79 43.26L84.63 43.26L84.63 48.68L80.79 48.68L80.79 43.26Z" fill="#FCB01A"/>
    <path d="M85.22 43.18L88.66 43.18L88.66 48.76L85.22 48.76L85.22 43.18Z" fill="#FCB01A"/>
    
    <!-- Letter "a" -->
    <path d="M91.09 43.26L96.07 43.26L96.07 48.68L91.09 48.68L91.09 43.26Z" fill="#FCB01A"/>
    <path d="M96.45 43.26L100.39 43.26L100.39 49.00L96.45 49.00L96.45 43.26Z" fill="#FCB01A"/>
    <path d="M100.77 43.26L102.10 43.26L102.10 48.68L100.77 48.68L100.77 43.26Z" fill="#FCB01A"/>
    <path d="M104.26 43.26L108.00 43.26L108.00 49.00L104.26 49.00L104.26 43.26Z" fill="#FCB01A"/>
    <path d="M108.61 43.26L109.95 43.26L109.95 48.68L108.61 48.68L108.61 43.26Z" fill="#FCB01A"/>
    <path d="M110.58 42.02L113.61 42.02L113.61 48.68L110.58 48.68L110.58 42.02Z" fill="#FCB01A"/>
    <path d="M114.21 43.26L118.05 43.26L118.05 48.68L114.21 48.68L114.21 43.26Z" fill="#FCB01A"/>
    <path d="M120.22 43.27L123.28 43.27L123.28 48.68L120.22 48.68L120.22 43.27Z" fill="#FCB01A"/>
    <path d="M123.66 41.27L127.90 41.27L127.90 48.68L123.66 48.68L123.66 41.27Z" fill="#FCB01A"/>
    <path d="M129.49 43.26L133.33 43.26L133.33 48.68L129.49 48.68L129.49 43.26Z" fill="#FCB01A"/>
    <path d="M133.92 43.18L137.36 43.18L137.36 48.76L133.92 48.76L133.92 43.18Z" fill="#FCB01A"/>
    <path d="M137.70 42.02L141.64 42.02L141.64 48.68L137.70 48.68L137.70 42.02Z" fill="#FCB01A"/>
    <path d="M141.98 43.26L145.82 43.26L145.82 48.68L141.98 48.68L141.98 43.26Z" fill="#FCB01A"/>
    <path d="M146.41 43.26L150.25 43.26L150.25 48.68L146.41 48.68L146.41 43.26Z" fill="#FCB01A"/>
    <path d="M152.01 43.26L155.90 43.26L155.90 48.68L152.01 48.68L152.01 43.26Z" fill="#FCB01A"/>
    <path d="M156.02 42.02L159.96 42.02L159.96 48.68L156.02 48.68L156.02 42.02Z" fill="#FCB01A"/>
    <path d="M160.06 43.27L163.57 43.27L163.57 48.68L160.06 48.68L160.06 43.27Z" fill="#FCB01A"/>
    <path d="M165.72 43.26L169.19 43.26L169.19 48.68L165.72 48.68L165.72 43.26Z" fill="#FCB01A"/>
    <path d="M169.75 42.66L174.00 42.66L174.00 49.00L169.75 49.00L169.75 42.66Z" fill="#FCB01A"/>
    <path d="M173.78 43.26L177.62 43.26L177.62 48.68L173.78 48.68L173.78 43.26Z" fill="#FCB01A"/>
    <path d="M178.21 43.18L181.65 43.18L181.65 48.76L178.21 48.76L178.21 43.18Z" fill="#FCB01A"/>
    
    <!-- Background text shapes -->
    <rect x="50.57" y="0.42" width="33.37" height="38.58" fill="#212D63"/>
    <rect x="90.96" y="0.42" width="22.59" height="38.58" fill="#212D63"/>
    <rect x="115.98" y="0.42" width="36.86" height="38.58" fill="#212D63"/>
    <rect x="154.46" y="0" width="27.54" height="39.42" fill="#212D63"/>
    
    <!-- Star decoration -->
    <path d="M135.74 20.80L152.84 20.80L152.84 38.00L135.74 38.00L135.74 20.80Z" fill="#FCB01A"/>
  </g>
  
  <defs>
    <linearGradient id="paint0_linear_1_829" x1="25.6333" y1="23.9607" x2="25.6333" y2="48.7649" gradientUnits="userSpaceOnUse">
      <stop stop-color="#FCB01A"/>
      <stop offset="0.22" stop-color="#FCB319"/>
      <stop offset="0.58" stop-color="#FCD00F"/>
      <stop offset="1" stop-color="#FFEF00"/>
    </linearGradient>
    <linearGradient id="paint1_linear_1_830" x1="26.5474" y1="30.3071" x2="26.5474" y2="48.7636" gradientUnits="userSpaceOnUse">
      <stop stop-color="#FCB01A"/>
      <stop offset="0.22" stop-color="#FCB319"/>
      <stop offset="0.58" stop-color="#FCD00F"/>
      <stop offset="1" stop-color="#FFEF00"/>
    </linearGradient>
    <linearGradient id="paint2_linear_1_831" x1="11.4301" y1="5.65042" x2="11.4301" y2="42.967" gradientUnits="userSpaceOnUse">
      <stop stop-color="#021B8C"/>
      <stop offset="0.15" stop-color="#0539A2"/>
      <stop offset="0.43" stop-color="#0C6BCA"/>
      <stop offset="0.68" stop-color="#1190E0"/>
      <stop offset="0.87" stop-color="#13A6F1"/>
      <stop offset="1" stop-color="#15AFFA"/>
    </linearGradient>
    <linearGradient id="paint3_linear_1_832" x1="26.028" y1="0.354527" x2="26.028" y2="30.3097" gradientUnits="userSpaceOnUse">
      <stop stop-color="#212D63"/>
      <stop offset="0.29" stop-color="#232D6B"/>
      <stop offset="0.77" stop-color="#2A2F84"/>
      <stop offset="1" stop-color="#2E3192"/>
    </linearGradient>
    <linearGradient id="paint4_linear_1_833" x1="28.7867" y1="0.354527" x2="28.7867" y2="26.6745" gradientUnits="userSpaceOnUse">
      <stop stop-color="#212D63"/>
      <stop offset="0.29" stop-color="#232D6B"/>
      <stop offset="0.77" stop-color="#2A2F84"/>
      <stop offset="1" stop-color="#2E3192"/>
    </linearGradient>
    <linearGradient id="paint5_linear_1_834" x1="7.34678" y1="6.71673" x2="7.34678" y2="39.8365" gradientUnits="userSpaceOnUse">
      <stop stop-color="#021B8C"/>
      <stop offset="0.15" stop-color="#0539A2"/>
      <stop offset="0.43" stop-color="#0C6BCA"/>
      <stop offset="0.68" stop-color="#1190E0"/>
      <stop offset="0.87" stop-color="#13A6F1"/>
      <stop offset="1" stop-color="#15AFFA"/>
    </linearGradient>
  </defs>
</svg>
